<?xml version="1.0" standalone="no"?>
<!DOCTYPE svg PUBLIC "-//W3C//DTD SVG 20010904//EN"
 "http://www.w3.org/TR/2001/REC-SVG-20010904/DTD/svg10.dtd">
<svg version="1.0" xmlns="http://www.w3.org/2000/svg"
 width="512.000000pt" height="512.000000pt" viewBox="0 0 512.000000 512.000000"
 preserveAspectRatio="xMidYMid meet">

<g transform="translate(0.000000,512.000000) scale(0.100000,-0.100000)"
fill="#000000" stroke="none">
<path d="M2370 5109 c-331 -34 -632 -161 -891 -378 -327 -273 -537 -629 -599
-1016 -47 -292 -22 -632 63 -845 35 -87 1194 -2549 1249 -2652 81 -152 263
-240 434 -211 97 17 182 62 246 131 46 50 71 97 184 337 72 154 354 755 626
1335 273 580 506 1084 517 1119 78 230 85 640 15 916 -84 335 -285 645 -573
886 -354 296 -792 426 -1271 378z m382 -865 c147 -30 272 -99 396 -218 180
-173 262 -367 262 -619 0 -171 -42 -317 -130 -451 -116 -178 -295 -310 -497
-368 -112 -32 -334 -32 -446 0 -156 44 -315 144 -415 260 -146 168 -211 342
-212 559 0 252 82 446 263 620 153 147 286 207 522 237 47 6 183 -5 257 -20z"/>
</g>
</svg>
